<svg viewBox="0 0 1240 420" xmlns="http://www.w3.org/2000/svg">
  <!-- MURCHA — gorizontal logo konsepti: chumoli maskot + so'z belgisi + slogan. Dastlabki qoralama -->
  <defs>
    <linearGradient id="bg2" x1="0" y1="0" x2="1" y2="1">
      <stop offset="0" stop-color="#FDBA4D"/>
      <stop offset="1" stop-color="#F59E0B"/>
    </linearGradient>
  </defs>

  <!-- Maskot ikon (kichraytirilgan) -->
  <g transform="translate(30,35) scale(0.68)">
    <rect width="512" height="512" rx="115" fill="url(#bg2)"/>
    <rect x="26" y="250" width="62" height="13" rx="6.5" fill="#FFFFFF" opacity="0.85"/>
    <rect x="40" y="288" width="80" height="13" rx="6.5" fill="#FFFFFF" opacity="0.6"/>
    <rect x="26" y="326" width="50" height="13" rx="6.5" fill="#FFFFFF" opacity="0.4"/>
    <g transform="rotate(-7 330 150)">
      <rect x="252" y="92" width="156" height="116" rx="14" fill="#FFF8F0"/>
      <rect x="252" y="138" width="156" height="22" fill="#FDBA74"/>
      <rect x="318" y="92" width="24" height="116" fill="#FDBA74" opacity="0.6"/>
    </g>
    <path d="M 205 358 L 168 438" stroke="#431407" stroke-width="16" stroke-linecap="round" fill="none"/>
    <path d="M 262 366 L 258 442" stroke="#431407" stroke-width="16" stroke-linecap="round" fill="none"/>
    <ellipse cx="148" cy="322" rx="88" ry="72" fill="#4A2B12"/>
    <path d="M 92 292 Q 148 262 204 292" stroke="#6B3E1D" stroke-width="12" stroke-linecap="round" fill="none"/>
    <path d="M 84 332 Q 148 308 212 332" stroke="#6B3E1D" stroke-width="12" stroke-linecap="round" fill="none"/>
    <ellipse cx="258" cy="312" rx="56" ry="50" fill="#4A2B12"/>
    <path d="M 292 292 L 278 208" stroke="#431407" stroke-width="16" stroke-linecap="round" fill="none"/>
    <path d="M 318 300 L 352 212" stroke="#431407" stroke-width="16" stroke-linecap="round" fill="none"/>
    <path d="M 330 232 C 318 186 288 168 272 174" stroke="#431407" stroke-width="12" stroke-linecap="round" fill="none"/>
    <circle cx="272" cy="174" r="12" fill="#431407"/>
    <path d="M 366 230 C 378 182 412 166 428 174" stroke="#431407" stroke-width="12" stroke-linecap="round" fill="none"/>
    <circle cx="428" cy="174" r="12" fill="#431407"/>
    <circle cx="348" cy="292" r="64" fill="#4A2B12"/>
    <circle cx="368" cy="282" r="24" fill="#FFFFFF"/>
    <circle cx="374" cy="284" r="11" fill="#1F1206"/>
    <circle cx="378" cy="279" r="4" fill="#FFFFFF"/>
    <path d="M 352 330 Q 372 344 392 328" stroke="#FFF8F0" stroke-width="9" stroke-linecap="round" fill="none"/>
    <circle cx="330" cy="322" r="13" fill="#FDBA74" opacity="0.7"/>
  </g>

  <!-- So'z belgisi -->
  <text x="430" y="235" font-family="'Baloo 2','Nunito','Arial Rounded MT Bold','Segoe UI',sans-serif"
        font-size="185" font-weight="800" letter-spacing="-4" fill="#3B2306">murcha</text>

  <!-- Slogan -->
  <text x="438" y="315" font-family="'Nunito','Segoe UI',sans-serif"
        font-size="52" font-weight="600" fill="#B45309">savdoga ulgur!</text>
</svg>

